<!-- Generated by IcoMoon.io -->
<svg version="1.1" xmlns="http://www.w3.org/2000/svg" width="52" height="52" viewBox="0 0 52 52">
<title>gift</title>
<path d="M38.558 10.4h13.442v15.6h-2.6v26h-46.8v-26h-2.6v-15.6h13.442c-0.287-0.78-0.453-1.681-0.453-2.62 0-4.308 3.492-7.8 7.8-7.8 2.007 0 3.836 0.758 5.218 2.003l-0.007-0.006c1.375-1.239 3.205-1.996 5.211-1.996 4.308 0 7.8 3.492 7.8 7.8 0 0.94-0.166 1.84-0.471 2.675l0.017-0.054zM20.8 26h-13v20.8h13v-20.8zM31.2 26v20.8h13v-20.8h-13zM20.8 15.6h-15.6v5.2h15.6v-5.2zM31.2 15.6v5.2h15.6v-5.2h-15.6zM20.8 10.4c1.436 0 2.6-1.164 2.6-2.6s-1.164-2.6-2.6-2.6v0c-1.436 0-2.6 1.164-2.6 2.6s1.164 2.6 2.6 2.6v0zM31.2 10.4c1.436 0 2.6-1.164 2.6-2.6s-1.164-2.6-2.6-2.6v0c-1.436 0-2.6 1.164-2.6 2.6s1.164 2.6 2.6 2.6v0z"></path>
</svg>
