<!-- Generated by IcoMoon.io -->
<svg version="1.1" xmlns="http://www.w3.org/2000/svg" width="52" height="52" viewBox="0 0 52 52">
<title>lock-closed</title>
<path d="M10.4 20.8v-5.2c0-8.616 6.984-15.6 15.6-15.6s15.6 6.984 15.6 15.6v0 5.2h2.6c2.872 0 5.2 2.328 5.2 5.2v0 20.8c0 2.872-2.328 5.2-5.2 5.2v0h-36.4c-2.872 0-5.2-2.328-5.2-5.2v0-20.8c0-2.86 2.34-5.2 5.2-5.2h2.6zM23.4 38.298v5.902h5.2v-5.902c1.565-0.916 2.6-2.589 2.6-4.503 0-2.872-2.328-5.2-5.2-5.2s-5.2 2.328-5.2 5.2c0 1.915 1.035 3.587 2.575 4.49l0.025 0.013zM18.2 15.6v5.2h15.6v-5.2c0-4.308-3.492-7.8-7.8-7.8s-7.8 3.492-7.8 7.8v0z"></path>
</svg>
